<?xml version="1.0" encoding="UTF-8" standalone="no"?>
<!-- Generator: Adobe Illustrator 18.0.0, SVG Export Plug-In . SVG Version: 6.00 Build 0)  -->

<svg
   version="1.1"
   id="Layer_1"
   x="0px"
   y="0px"
   viewBox="0 0 410.00001 410.00001"
   enable-background="new 0 0 398.9 193.4"
   xml:space="preserve"
   sodipodi:docname="terr"
   width="410"
   height="410"
   inkscape:version="1.2.1 (8a69933317, 2022-10-28, custom)"
   xmlns:inkscape="http://www.inkscape.org/namespaces/inkscape"
   xmlns:sodipodi="http://sodipodi.sourceforge.net/DTD/sodipodi-0.dtd"
   xmlns="http://www.w3.org/2000/svg"
   xmlns:svg="http://www.w3.org/2000/svg"><defs
   id="defs22" /><sodipodi:namedview
   id="namedview20"
   pagecolor="#ffffff"
   bordercolor="#999999"
   borderopacity="1"
   inkscape:showpageshadow="0"
   inkscape:pageopacity="0"
   inkscape:pagecheckerboard="true"
   inkscape:deskcolor="#d1d1d1"
   showgrid="false"
   showborder="true"
   borderlayer="true"
   inkscape:zoom="1.5674954"
   inkscape:cx="151.51559"
   inkscape:cy="231.26064"
   inkscape:window-width="1920"
   inkscape:window-height="1016"
   inkscape:window-x="0"
   inkscape:window-y="723"
   inkscape:window-maximized="1"
   inkscape:current-layer="layer1" />
<g
   inkscape:groupmode="layer"
   id="layer1"
   inkscape:label="Layer 1"
   style="display:inline"
   transform="translate(5,108.3)"><rect
     style="fill:#ffffff;stroke-width:4.67553;stroke-linecap:round;image-rendering:auto"
     id="rect428"
     width="410"
     height="410"
     x="-5"
     y="-108.3"
     inkscape:label="rect428"
     ry="45.901142" /></g><path
   id="path11"
   fill="#034ea2"
   d="m 148.2,252.9 c 0,-1.2 0.1,-2.4 0.4,-3.6 1.5,-7 6.9,-14.3 13.9,-18.6 22.2,-13.6 40.6,-9.6 43.3,-8.1 0.3,0.2 0.1,0.4 -0.1,0.9 -2.5,6.4 -25.6,26.7 -55.2,37.5 -1.4,-2.3 -2.3,-5.4 -2.3,-8.1 M 225,215.7 c -2.8,-3.1 -10.2,-6.5 -20.2,-8.1 -9.7,-1.5 -29.8,-2.6 -51.6,8.6 -22.8,11.7 -37.5,33.4 -30.9,54 0.1,0 -19.2,7.1 -33.6,4.2 -7.8,-1.6 -15.1,-7.3 -17.4,-15 -3.6,-11.8 -0.6,-32 19.6,-50.4 26.7,-24.4 66.8,-33.1 83.9,-36.8 7.9,-1.7 8.9,-2 9.1,-3.1 0.1,-0.5 0.4,-2.3 -1.2,-4.2 -2.4,-2.8 -9.3,-5.8 -28.3,-3.8 -19.6,2.2 -46.4,10.1 -54.4,12.6 5.5,-11.5 22.5,-42.1 25.5,-47.9 4.9,-9.4 6.7,-13.4 6.7,-15.6 0,-0.6 -0.2,-1.1 -0.5,-1.4 -2.8,-2.6 -18.8,6.1 -31,20.5 -12.3,14.4 -18.8,26 -28.5,41.2 -10.7,17 -44.3,25.6 -60.5,30 -4.3,1.2 -5.6,1.4 -6.2,2 -0.5,0.6 -0.7,1.4 -0.5,2.2 1.4,4.8 9.6,9.9 18.1,10.3 6.2,0.3 13.5,-0.7 25,-3.9 -6.1,9.7 -16.5,31.2 -16.5,51.6 0,15.9 7.3,34.8 38.4,37.8 24.5,2.3 48.2,-6.4 64.9,-12.8 18.8,14.6 44.4,13.8 44.5,13.8 65.7,0 96.2,-52.6 101.8,-62.4 0,0.1 6,19.6 17.5,35.4 15.7,21.7 37.5,28.5 59.8,26.4 26.5,-2.5 43.6,-23 45.2,-26.8 0.8,-1.9 0,-3.9 -4.9,-1.3 -4.1,2.2 -8.6,5.5 -19.6,7.6 -49.2,9.3 -63.9,-41.8 -74.4,-63.7 -1.4,-3.1 -2.7,-5.4 -4.1,-6 -3,-1.2 -26.2,2.9 -28.7,7.8 -25.8,48 -59.4,58.7 -84.8,59.1 -8.5,0.1 -15.7,-1.6 -21.4,-4.6 10,-4.9 17,-8.7 24.2,-13.5 26.4,-17.6 36,-36.4 36,-42.5 -0.2,-0.4 -0.5,-0.8 -1,-1.3 z"
   style="display:inline" />
</svg>
